# xmcd
#
# Track frame offsets:
#	150
#	11762
#	31738
#	44429
#	53787
#	69242
#	87543
#	98911
#	111745
#	122157
#	131003
#	147285
#	166131
#	178906
#	192761
#	206596
#	219721
#	236728
#	248663
#
# Disc length: 3546 seconds
#
# Revision: 0
# Processed by: cddbd v1.4PL0 Copyright (c) Steve Scherf et al.
# Submitted via: EasyCDDAExtractor 4.6.0.1
#
DISCID=1a0dd813
DTITLE=Various Artist - ROSE [CD 02)
DYEAR=2001
DGENRE=COUNTRY and FOLK
TTITLE0=Help me make it through the night
TTITLE1=California Dreaming
TTITLE2=Rose Garden
TTITLE3=Handy Man
TTITLE4=For the Good Times
TTITLE5=Just When I Needed You Most
TTITLE6=Sea Of Heartbreak
TTITLE7=Tell Laura I Love Her
TTITLE8=This Land Is Your Land
TTITLE9=If You Go Way
TTITLE10=When I Dream
TTITLE11=I'd Love You To Want Me
TTITLE12=The Most Beautiful Girl
TTITLE13=I Will Always Love You
TTITLE14=Changing Partners
TTITLE15=Stand By Your Man
TTITLE16=Seasons In The Sun
TTITLE17=Will You Still Love Me Tomorrow
TTITLE18=Somebody's Knocking
EXTD=
EXTT0=
EXTT1=
EXTT2=
EXTT3=
EXTT4=
EXTT5=
EXTT6=
EXTT7=
EXTT8=
EXTT9=
EXTT10=
EXTT11=
EXTT12=
EXTT13=
EXTT14=
EXTT15=
EXTT16=
EXTT17=
EXTT18=
PLAYORDER=
